<?xml version="1.0" encoding="UTF-8" standalone="no"?>
<!DOCTYPE svg PUBLIC "-//W3C//DTD SVG 1.1//EN"
 "http://www.w3.org/Graphics/SVG/1.1/DTD/svg11.dtd">
<!-- Generated by graphviz version 2.47.0 (20210316.0004)
 -->
<!-- Title: dependencies Pages: 1 -->
<svg width="1013pt" height="284pt"
 viewBox="0.00 0.00 1013.00 284.00" xmlns="http://www.w3.org/2000/svg" xmlns:xlink="http://www.w3.org/1999/xlink">
<g id="graph0" class="graph" transform="scale(1 1) rotate(0) translate(4 280)">
<title>dependencies</title>
<polygon fill="white" stroke="transparent" points="-4,4 -4,-280 1009,-280 1009,4 -4,4"/>
<text text-anchor="start" x="481.51" y="-42.4" font-family="Times-12" font-weight="bold" font-size="14.00">Legend</text>
<polygon fill="#ffffb3" stroke="transparent" points="268.5,-10 268.5,-30 288.5,-30 288.5,-10 268.5,-10"/>
<text text-anchor="start" x="292.13" y="-15.4" font-family="Times-12" font-size="14.00"> &#160;Declarations</text>
<polygon fill="#8dd3c7" stroke="transparent" points="381.5,-10 381.5,-30 401.5,-30 401.5,-10 381.5,-10"/>
<text text-anchor="start" x="405.23" y="-15.4" font-family="Times-12" font-size="14.00"> &#160;Module</text>
<polygon fill="#80b1d3" stroke="transparent" points="467.5,-10 467.5,-30 487.5,-30 487.5,-10 467.5,-10"/>
<text text-anchor="start" x="491.28" y="-15.4" font-family="Times-12" font-size="14.00"> &#160;Bootstrap</text>
<polygon fill="#fdb462" stroke="transparent" points="564.5,-10 564.5,-30 584.5,-30 584.5,-10 564.5,-10"/>
<text text-anchor="start" x="588.17" y="-15.4" font-family="Times-12" font-size="14.00"> &#160;Providers</text>
<polygon fill="#fb8072" stroke="transparent" points="660.5,-10 660.5,-30 680.5,-30 680.5,-10 660.5,-10"/>
<text text-anchor="start" x="684.23" y="-15.4" font-family="Times-12" font-size="14.00"> &#160;Exports</text>
<g id="clust1" class="cluster">
<title>cluster_BaseModule</title>
<polygon fill="none" stroke="black" stroke-dasharray="1,5" points="8,-70 8,-268 997,-268 997,-70 8,-70"/>
</g>
<g id="clust8" class="cluster">
<title>cluster_BaseModule_imports</title>
<polygon fill="none" stroke="black" points="859,-78 859,-130 989,-130 989,-78 859,-78"/>
</g>
<g id="clust9" class="cluster">
<title>cluster_BaseModule_exports</title>
<polygon fill="none" stroke="black" points="75,-208 75,-260 930,-260 930,-208 75,-208"/>
</g>
<g id="clust2" class="cluster">
<title>cluster_BaseModule_declarations</title>
<polygon fill="none" stroke="black" points="16,-78 16,-130 851,-130 851,-78 16,-78"/>
</g>
<!-- BaseButtonComponent -->
<g id="node1" class="node">
<title>BaseButtonComponent</title>
<polygon fill="#ffffb3" stroke="black" points="843.16,-122 696.84,-122 696.84,-86 843.16,-86 843.16,-122"/>
<text text-anchor="middle" x="770" y="-99.8" font-family="Times,serif" font-size="14.00">BaseButtonComponent</text>
</g>
<!-- BaseModule -->
<g id="node6" class="node">
<title>BaseModule</title>
<polygon fill="#8dd3c7" stroke="black" points="537.26,-187 534.26,-191 513.26,-191 510.26,-187 450.74,-187 450.74,-151 537.26,-151 537.26,-187"/>
<text text-anchor="middle" x="494" y="-164.8" font-family="Times,serif" font-size="14.00">BaseModule</text>
</g>
<!-- BaseButtonComponent&#45;&gt;BaseModule -->
<g id="edge1" class="edge">
<title>BaseButtonComponent&#45;&gt;BaseModule</title>
<path fill="none" stroke="black" d="M725.15,-122.01C725.15,-138.05 725.15,-159 725.15,-159 725.15,-159 547.48,-159 547.48,-159"/>
<polygon fill="black" stroke="black" points="547.48,-155.5 537.48,-159 547.48,-162.5 547.48,-155.5"/>
</g>
<!-- BaseContainerComponent -->
<g id="node2" class="node">
<title>BaseContainerComponent</title>
<polygon fill="#ffffb3" stroke="black" points="678.75,-122 515.25,-122 515.25,-86 678.75,-86 678.75,-122"/>
<text text-anchor="middle" x="597" y="-99.8" font-family="Times,serif" font-size="14.00">BaseContainerComponent</text>
</g>
<!-- BaseContainerComponent&#45;&gt;BaseModule -->
<g id="edge2" class="edge">
<title>BaseContainerComponent&#45;&gt;BaseModule</title>
<path fill="none" stroke="black" d="M526.25,-122.11C526.25,-122.11 526.25,-140.99 526.25,-140.99"/>
<polygon fill="black" stroke="black" points="522.75,-140.99 526.25,-150.99 529.75,-140.99 522.75,-140.99"/>
</g>
<!-- BaseFooterComponent -->
<g id="node3" class="node">
<title>BaseFooterComponent</title>
<polygon fill="#ffffb3" stroke="black" points="497.59,-122 352.41,-122 352.41,-86 497.59,-86 497.59,-122"/>
<text text-anchor="middle" x="425" y="-99.8" font-family="Times,serif" font-size="14.00">BaseFooterComponent</text>
</g>
<!-- BaseFooterComponent&#45;&gt;BaseModule -->
<g id="edge3" class="edge">
<title>BaseFooterComponent&#45;&gt;BaseModule</title>
<path fill="none" stroke="black" d="M474.08,-122.11C474.08,-122.11 474.08,-140.99 474.08,-140.99"/>
<polygon fill="black" stroke="black" points="470.58,-140.99 474.08,-150.99 477.58,-140.99 470.58,-140.99"/>
</g>
<!-- BaseHeaderComponent -->
<g id="node4" class="node">
<title>BaseHeaderComponent</title>
<polygon fill="#ffffb3" stroke="black" points="334.45,-122 185.55,-122 185.55,-86 334.45,-86 334.45,-122"/>
<text text-anchor="middle" x="260" y="-99.8" font-family="Times,serif" font-size="14.00">BaseHeaderComponent</text>
</g>
<!-- BaseHeaderComponent&#45;&gt;BaseModule -->
<g id="edge4" class="edge">
<title>BaseHeaderComponent&#45;&gt;BaseModule</title>
<path fill="none" stroke="black" d="M291.62,-122.01C291.62,-138.05 291.62,-159 291.62,-159 291.62,-159 440.59,-159 440.59,-159"/>
<polygon fill="black" stroke="black" points="440.59,-162.5 450.59,-159 440.59,-155.5 440.59,-162.5"/>
</g>
<!-- BaseImageComponent -->
<g id="node5" class="node">
<title>BaseImageComponent</title>
<polygon fill="#ffffb3" stroke="black" points="167.52,-122 24.48,-122 24.48,-86 167.52,-86 167.52,-122"/>
<text text-anchor="middle" x="96" y="-99.8" font-family="Times,serif" font-size="14.00">BaseImageComponent</text>
</g>
<!-- BaseImageComponent&#45;&gt;BaseModule -->
<g id="edge5" class="edge">
<title>BaseImageComponent&#45;&gt;BaseModule</title>
<path fill="none" stroke="black" d="M125.62,-122.27C125.62,-140.56 125.62,-166 125.62,-166 125.62,-166 440.66,-166 440.66,-166"/>
<polygon fill="black" stroke="black" points="440.66,-169.5 450.66,-166 440.66,-162.5 440.66,-169.5"/>
</g>
<!-- BaseButtonComponent  -->
<g id="node8" class="node">
<title>BaseButtonComponent </title>
<polygon fill="#fb8072" stroke="black" points="922.16,-252 771.84,-252 771.84,-216 922.16,-216 922.16,-252"/>
<text text-anchor="middle" x="847" y="-229.8" font-family="Times,serif" font-size="14.00">BaseButtonComponent </text>
</g>
<!-- BaseModule&#45;&gt;BaseButtonComponent  -->
<g id="edge7" class="edge">
<title>BaseModule&#45;&gt;BaseButtonComponent </title>
<path fill="none" stroke="black" stroke-dasharray="5,2" d="M537.28,-173C623.31,-173 807.62,-173 807.62,-173 807.62,-173 807.62,-205.7 807.62,-205.7"/>
<polygon fill="black" stroke="black" points="804.13,-205.7 807.62,-215.7 811.13,-205.7 804.13,-205.7"/>
</g>
<!-- BaseContainerComponent  -->
<g id="node9" class="node">
<title>BaseContainerComponent </title>
<polygon fill="#fb8072" stroke="black" points="753.75,-252 586.25,-252 586.25,-216 753.75,-216 753.75,-252"/>
<text text-anchor="middle" x="670" y="-229.8" font-family="Times,serif" font-size="14.00">BaseContainerComponent </text>
</g>
<!-- BaseModule&#45;&gt;BaseContainerComponent  -->
<g id="edge8" class="edge">
<title>BaseModule&#45;&gt;BaseContainerComponent </title>
<path fill="none" stroke="black" stroke-dasharray="5,2" d="M537.48,-180C578.14,-180 632.62,-180 632.62,-180 632.62,-180 632.62,-205.72 632.62,-205.72"/>
<polygon fill="black" stroke="black" points="629.13,-205.72 632.62,-215.72 636.13,-205.72 629.13,-205.72"/>
</g>
<!-- BaseFooterComponent  -->
<g id="node10" class="node">
<title>BaseFooterComponent </title>
<polygon fill="#fb8072" stroke="black" points="568.09,-252 419.91,-252 419.91,-216 568.09,-216 568.09,-252"/>
<text text-anchor="middle" x="494" y="-229.8" font-family="Times,serif" font-size="14.00">BaseFooterComponent </text>
</g>
<!-- BaseModule&#45;&gt;BaseFooterComponent  -->
<g id="edge9" class="edge">
<title>BaseModule&#45;&gt;BaseFooterComponent </title>
<path fill="none" stroke="black" stroke-dasharray="5,2" d="M494,-187.11C494,-187.11 494,-205.99 494,-205.99"/>
<polygon fill="black" stroke="black" points="490.5,-205.99 494,-215.99 497.5,-205.99 490.5,-205.99"/>
</g>
<!-- BaseHeaderComponent  -->
<g id="node11" class="node">
<title>BaseHeaderComponent </title>
<polygon fill="#fb8072" stroke="black" points="401.45,-252 248.55,-252 248.55,-216 401.45,-216 401.45,-252"/>
<text text-anchor="middle" x="325" y="-229.8" font-family="Times,serif" font-size="14.00">BaseHeaderComponent </text>
</g>
<!-- BaseModule&#45;&gt;BaseHeaderComponent  -->
<g id="edge10" class="edge">
<title>BaseModule&#45;&gt;BaseHeaderComponent </title>
<path fill="none" stroke="black" stroke-dasharray="5,2" d="M450.71,-180C417.33,-180 376.84,-180 376.84,-180 376.84,-180 376.84,-205.72 376.84,-205.72"/>
<polygon fill="black" stroke="black" points="373.34,-205.72 376.84,-215.72 380.34,-205.72 373.34,-205.72"/>
</g>
<!-- BaseImageComponent  -->
<g id="node12" class="node">
<title>BaseImageComponent </title>
<polygon fill="#fb8072" stroke="black" points="230.52,-252 83.48,-252 83.48,-216 230.52,-216 230.52,-252"/>
<text text-anchor="middle" x="157" y="-229.8" font-family="Times,serif" font-size="14.00">BaseImageComponent </text>
</g>
<!-- BaseModule&#45;&gt;BaseImageComponent  -->
<g id="edge11" class="edge">
<title>BaseModule&#45;&gt;BaseImageComponent </title>
<path fill="none" stroke="black" stroke-dasharray="5,2" d="M450.57,-173C370.56,-173 208.02,-173 208.02,-173 208.02,-173 208.02,-205.7 208.02,-205.7"/>
<polygon fill="black" stroke="black" points="204.52,-205.7 208.02,-215.7 211.52,-205.7 204.52,-205.7"/>
</g>
<!-- NgExportModule -->
<g id="node7" class="node">
<title>NgExportModule</title>
<polygon fill="#8dd3c7" stroke="black" points="981.26,-122 978.26,-126 957.26,-126 954.26,-122 866.74,-122 866.74,-86 981.26,-86 981.26,-122"/>
<text text-anchor="middle" x="924" y="-99.8" font-family="Times,serif" font-size="14.00">NgExportModule</text>
</g>
<!-- NgExportModule&#45;&gt;BaseModule -->
<g id="edge6" class="edge">
<title>NgExportModule&#45;&gt;BaseModule</title>
<path fill="none" stroke="black" d="M894.35,-122.27C894.35,-140.56 894.35,-166 894.35,-166 894.35,-166 547.61,-166 547.61,-166"/>
<polygon fill="black" stroke="black" points="547.61,-162.5 537.61,-166 547.61,-169.5 547.61,-162.5"/>
</g>
</g>
</svg>
