<?xml version="1.0" encoding="UTF-8" standalone="no"?>
<!DOCTYPE svg PUBLIC "-//W3C//DTD SVG 1.1//EN"
 "http://www.w3.org/Graphics/SVG/1.1/DTD/svg11.dtd">
<!-- Generated by graphviz version 2.47.0 (20210316.0004)
 -->
<!-- Title: dependencies Pages: 1 -->
<svg width="504pt" height="211pt"
 viewBox="0.00 0.00 504.00 211.00" xmlns="http://www.w3.org/2000/svg" xmlns:xlink="http://www.w3.org/1999/xlink">
<g id="graph0" class="graph" transform="scale(1 1) rotate(0) translate(4 207)">
<title>dependencies</title>
<polygon fill="white" stroke="transparent" points="-4,4 -4,-207 500,-207 500,4 -4,4"/>
<text text-anchor="start" x="227.01" y="-42.4" font-family="Times-12" font-weight="bold" font-size="14.00">Legend</text>
<polygon fill="#ffffb3" stroke="transparent" points="14,-10 14,-30 34,-30 34,-10 14,-10"/>
<text text-anchor="start" x="37.63" y="-15.4" font-family="Times-12" font-size="14.00"> &#160;Declarations</text>
<polygon fill="#8dd3c7" stroke="transparent" points="127,-10 127,-30 147,-30 147,-10 127,-10"/>
<text text-anchor="start" x="150.73" y="-15.4" font-family="Times-12" font-size="14.00"> &#160;Module</text>
<polygon fill="#80b1d3" stroke="transparent" points="213,-10 213,-30 233,-30 233,-10 213,-10"/>
<text text-anchor="start" x="236.78" y="-15.4" font-family="Times-12" font-size="14.00"> &#160;Bootstrap</text>
<polygon fill="#fdb462" stroke="transparent" points="310,-10 310,-30 330,-30 330,-10 310,-10"/>
<text text-anchor="start" x="333.67" y="-15.4" font-family="Times-12" font-size="14.00"> &#160;Providers</text>
<polygon fill="#fb8072" stroke="transparent" points="406,-10 406,-30 426,-30 426,-10 406,-10"/>
<text text-anchor="start" x="429.73" y="-15.4" font-family="Times-12" font-size="14.00"> &#160;Exports</text>
<g id="clust1" class="cluster">
<title>cluster_SharedModule</title>
<polygon fill="none" stroke="black" stroke-dasharray="1,5" points="119,-70 119,-195 377,-195 377,-70 119,-70"/>
</g>
<g id="clust4" class="cluster">
<title>cluster_SharedModule_exports</title>
<polygon fill="none" stroke="black" points="127,-135 127,-187 369,-187 369,-135 127,-135"/>
</g>
<!-- BaseModule  -->
<g id="node1" class="node">
<title>BaseModule </title>
<polygon fill="#fb8072" stroke="black" points="361.26,-179 270.74,-179 270.74,-143 361.26,-143 361.26,-179"/>
<text text-anchor="middle" x="316" y="-156.8" font-family="Times,serif" font-size="14.00">BaseModule </text>
</g>
<!-- NgExportModule  -->
<g id="node2" class="node">
<title>NgExportModule </title>
<polygon fill="#fb8072" stroke="black" points="253.26,-179 134.74,-179 134.74,-143 253.26,-143 253.26,-179"/>
<text text-anchor="middle" x="194" y="-156.8" font-family="Times,serif" font-size="14.00">NgExportModule </text>
</g>
<!-- SharedModule -->
<g id="node3" class="node">
<title>SharedModule</title>
<polygon fill="#8dd3c7" stroke="black" points="304.42,-114 301.42,-118 280.42,-118 277.42,-114 205.58,-114 205.58,-78 304.42,-78 304.42,-114"/>
<text text-anchor="middle" x="255" y="-91.8" font-family="Times,serif" font-size="14.00">SharedModule</text>
</g>
<!-- SharedModule&#45;&gt;BaseModule  -->
<g id="edge1" class="edge">
<title>SharedModule&#45;&gt;BaseModule </title>
<path fill="none" stroke="black" stroke-dasharray="5,2" d="M287.54,-114.11C287.54,-114.11 287.54,-132.99 287.54,-132.99"/>
<polygon fill="black" stroke="black" points="284.04,-132.99 287.54,-142.99 291.04,-132.99 284.04,-132.99"/>
</g>
<!-- SharedModule&#45;&gt;NgExportModule  -->
<g id="edge2" class="edge">
<title>SharedModule&#45;&gt;NgExportModule </title>
<path fill="none" stroke="black" stroke-dasharray="5,2" d="M229.46,-114.11C229.46,-114.11 229.46,-132.99 229.46,-132.99"/>
<polygon fill="black" stroke="black" points="225.96,-132.99 229.46,-142.99 232.96,-132.99 225.96,-132.99"/>
</g>
</g>
</svg>
