<?xml version="1.0" encoding="UTF-8" standalone="no"?>
<!DOCTYPE svg PUBLIC "-//W3C//DTD SVG 1.1//EN"
 "http://www.w3.org/Graphics/SVG/1.1/DTD/svg11.dtd">
<!-- Generated by graphviz version 2.47.0 (20210316.0004)
 -->
<!-- Title: dependencies Pages: 1 -->
<svg width="885pt" height="284pt"
 viewBox="0.00 0.00 885.00 284.00" xmlns="http://www.w3.org/2000/svg" xmlns:xlink="http://www.w3.org/1999/xlink">
<g id="graph0" class="graph" transform="scale(1 1) rotate(0) translate(4 280)">
<title>dependencies</title>
<polygon fill="white" stroke="transparent" points="-4,4 -4,-280 881,-280 881,4 -4,4"/>
<text text-anchor="start" x="417.51" y="-42.4" font-family="Times-12" font-weight="bold" font-size="14.00">Legend</text>
<polygon fill="#ffffb3" stroke="transparent" points="204.5,-10 204.5,-30 224.5,-30 224.5,-10 204.5,-10"/>
<text text-anchor="start" x="228.13" y="-15.4" font-family="Times-12" font-size="14.00"> &#160;Declarations</text>
<polygon fill="#8dd3c7" stroke="transparent" points="317.5,-10 317.5,-30 337.5,-30 337.5,-10 317.5,-10"/>
<text text-anchor="start" x="341.23" y="-15.4" font-family="Times-12" font-size="14.00"> &#160;Module</text>
<polygon fill="#80b1d3" stroke="transparent" points="403.5,-10 403.5,-30 423.5,-30 423.5,-10 403.5,-10"/>
<text text-anchor="start" x="427.28" y="-15.4" font-family="Times-12" font-size="14.00"> &#160;Bootstrap</text>
<polygon fill="#fdb462" stroke="transparent" points="500.5,-10 500.5,-30 520.5,-30 520.5,-10 500.5,-10"/>
<text text-anchor="start" x="524.17" y="-15.4" font-family="Times-12" font-size="14.00"> &#160;Providers</text>
<polygon fill="#fb8072" stroke="transparent" points="596.5,-10 596.5,-30 616.5,-30 616.5,-10 596.5,-10"/>
<text text-anchor="start" x="620.23" y="-15.4" font-family="Times-12" font-size="14.00"> &#160;Exports</text>
<g id="clust1" class="cluster">
<title>cluster_UserModule</title>
<polygon fill="none" stroke="black" stroke-dasharray="1,5" points="8,-70 8,-268 869,-268 869,-70 8,-70"/>
</g>
<g id="clust2" class="cluster">
<title>cluster_UserModule_declarations</title>
<polygon fill="none" stroke="black" points="138,-78 138,-130 861,-130 861,-78 138,-78"/>
</g>
<g id="clust8" class="cluster">
<title>cluster_UserModule_exports</title>
<polygon fill="none" stroke="black" points="70,-208 70,-260 807,-260 807,-208 70,-208"/>
</g>
<g id="clust7" class="cluster">
<title>cluster_UserModule_imports</title>
<polygon fill="none" stroke="black" points="16,-78 16,-130 130,-130 130,-78 16,-78"/>
</g>
<!-- UserActionsComponent -->
<g id="node1" class="node">
<title>UserActionsComponent</title>
<polygon fill="#ffffb3" stroke="black" points="852.81,-122 701.19,-122 701.19,-86 852.81,-86 852.81,-122"/>
<text text-anchor="middle" x="777" y="-99.8" font-family="Times,serif" font-size="14.00">UserActionsComponent</text>
</g>
<!-- UserModule -->
<g id="node5" class="node">
<title>UserModule</title>
<polygon fill="#8dd3c7" stroke="black" points="463.98,-187 460.98,-191 439.98,-191 436.98,-187 378.02,-187 378.02,-151 463.98,-151 463.98,-187"/>
<text text-anchor="middle" x="421" y="-164.8" font-family="Times,serif" font-size="14.00">UserModule</text>
</g>
<!-- UserActionsComponent&#45;&gt;UserModule -->
<g id="edge1" class="edge">
<title>UserActionsComponent&#45;&gt;UserModule</title>
<path fill="none" stroke="black" d="M750.38,-122.11C750.38,-141.34 750.38,-169 750.38,-169 750.38,-169 474.06,-169 474.06,-169"/>
<polygon fill="black" stroke="black" points="474.06,-165.5 464.06,-169 474.06,-172.5 474.06,-165.5"/>
</g>
<!-- UserLoginFormComponent -->
<g id="node2" class="node">
<title>UserLoginFormComponent</title>
<polygon fill="#ffffb3" stroke="black" points="683.54,-122 512.46,-122 512.46,-86 683.54,-86 683.54,-122"/>
<text text-anchor="middle" x="598" y="-99.8" font-family="Times,serif" font-size="14.00">UserLoginFormComponent</text>
</g>
<!-- UserLoginFormComponent&#45;&gt;UserModule -->
<g id="edge2" class="edge">
<title>UserLoginFormComponent&#45;&gt;UserModule</title>
<path fill="none" stroke="black" d="M569.38,-122.03C569.38,-138.4 569.38,-160 569.38,-160 569.38,-160 474.32,-160 474.32,-160"/>
<polygon fill="black" stroke="black" points="474.32,-156.5 464.32,-160 474.32,-163.5 474.32,-156.5"/>
</g>
<!-- UserProfileComponent -->
<g id="node3" class="node">
<title>UserProfileComponent</title>
<polygon fill="#ffffb3" stroke="black" points="493.86,-122 348.14,-122 348.14,-86 493.86,-86 493.86,-122"/>
<text text-anchor="middle" x="421" y="-99.8" font-family="Times,serif" font-size="14.00">UserProfileComponent</text>
</g>
<!-- UserProfileComponent&#45;&gt;UserModule -->
<g id="edge3" class="edge">
<title>UserProfileComponent&#45;&gt;UserModule</title>
<path fill="none" stroke="black" d="M421,-122.11C421,-122.11 421,-140.99 421,-140.99"/>
<polygon fill="black" stroke="black" points="417.5,-140.99 421,-150.99 424.5,-140.99 417.5,-140.99"/>
</g>
<!-- UserRegisterFormComponent -->
<g id="node4" class="node">
<title>UserRegisterFormComponent</title>
<polygon fill="#ffffb3" stroke="black" points="330.24,-122 145.76,-122 145.76,-86 330.24,-86 330.24,-122"/>
<text text-anchor="middle" x="238" y="-99.8" font-family="Times,serif" font-size="14.00">UserRegisterFormComponent</text>
</g>
<!-- UserRegisterFormComponent&#45;&gt;UserModule -->
<g id="edge4" class="edge">
<title>UserRegisterFormComponent&#45;&gt;UserModule</title>
<path fill="none" stroke="black" d="M307.35,-122.03C307.35,-138.4 307.35,-160 307.35,-160 307.35,-160 367.71,-160 367.71,-160"/>
<polygon fill="black" stroke="black" points="367.71,-163.5 377.71,-160 367.71,-156.5 367.71,-163.5"/>
</g>
<!-- UserActionsComponent  -->
<g id="node7" class="node">
<title>UserActionsComponent </title>
<polygon fill="#fb8072" stroke="black" points="799.31,-252 644.69,-252 644.69,-216 799.31,-216 799.31,-252"/>
<text text-anchor="middle" x="722" y="-229.8" font-family="Times,serif" font-size="14.00">UserActionsComponent </text>
</g>
<!-- UserModule&#45;&gt;UserActionsComponent  -->
<g id="edge6" class="edge">
<title>UserModule&#45;&gt;UserActionsComponent </title>
<path fill="none" stroke="black" stroke-dasharray="5,2" d="M464.2,-178C534.08,-178 664.18,-178 664.18,-178 664.18,-178 664.18,-205.97 664.18,-205.97"/>
<polygon fill="black" stroke="black" points="660.68,-205.97 664.18,-215.97 667.68,-205.97 660.68,-205.97"/>
</g>
<!-- UserLoginFormComponent  -->
<g id="node8" class="node">
<title>UserLoginFormComponent </title>
<polygon fill="#fb8072" stroke="black" points="626.54,-252 451.46,-252 451.46,-216 626.54,-216 626.54,-252"/>
<text text-anchor="middle" x="539" y="-229.8" font-family="Times,serif" font-size="14.00">UserLoginFormComponent </text>
</g>
<!-- UserModule&#45;&gt;UserLoginFormComponent  -->
<g id="edge7" class="edge">
<title>UserModule&#45;&gt;UserLoginFormComponent </title>
<path fill="none" stroke="black" stroke-dasharray="5,2" d="M457.74,-187.11C457.74,-187.11 457.74,-205.99 457.74,-205.99"/>
<polygon fill="black" stroke="black" points="454.24,-205.99 457.74,-215.99 461.24,-205.99 454.24,-205.99"/>
</g>
<!-- UserProfileComponent  -->
<g id="node9" class="node">
<title>UserProfileComponent </title>
<polygon fill="#fb8072" stroke="black" points="433.86,-252 284.14,-252 284.14,-216 433.86,-216 433.86,-252"/>
<text text-anchor="middle" x="359" y="-229.8" font-family="Times,serif" font-size="14.00">UserProfileComponent </text>
</g>
<!-- UserModule&#45;&gt;UserProfileComponent  -->
<g id="edge8" class="edge">
<title>UserModule&#45;&gt;UserProfileComponent </title>
<path fill="none" stroke="black" stroke-dasharray="5,2" d="M405.85,-187.11C405.85,-187.11 405.85,-205.99 405.85,-205.99"/>
<polygon fill="black" stroke="black" points="402.35,-205.99 405.85,-215.99 409.35,-205.99 402.35,-205.99"/>
</g>
<!-- UserRegisterFormComponent  -->
<g id="node10" class="node">
<title>UserRegisterFormComponent </title>
<polygon fill="#fb8072" stroke="black" points="266.24,-252 77.76,-252 77.76,-216 266.24,-216 266.24,-252"/>
<text text-anchor="middle" x="172" y="-229.8" font-family="Times,serif" font-size="14.00">UserRegisterFormComponent </text>
</g>
<!-- UserModule&#45;&gt;UserRegisterFormComponent  -->
<g id="edge9" class="edge">
<title>UserModule&#45;&gt;UserRegisterFormComponent </title>
<path fill="none" stroke="black" stroke-dasharray="5,2" d="M377.98,-178C315.2,-178 205.88,-178 205.88,-178 205.88,-178 205.88,-205.97 205.88,-205.97"/>
<polygon fill="black" stroke="black" points="202.38,-205.97 205.88,-215.97 209.38,-205.97 202.38,-205.97"/>
</g>
<!-- SharedModule -->
<g id="node6" class="node">
<title>SharedModule</title>
<polygon fill="#8dd3c7" stroke="black" points="122.42,-122 119.42,-126 98.42,-126 95.42,-122 23.58,-122 23.58,-86 122.42,-86 122.42,-122"/>
<text text-anchor="middle" x="73" y="-99.8" font-family="Times,serif" font-size="14.00">SharedModule</text>
</g>
<!-- SharedModule&#45;&gt;UserModule -->
<g id="edge5" class="edge">
<title>SharedModule&#45;&gt;UserModule</title>
<path fill="none" stroke="black" d="M100.04,-122.11C100.04,-141.34 100.04,-169 100.04,-169 100.04,-169 367.71,-169 367.71,-169"/>
<polygon fill="black" stroke="black" points="367.71,-172.5 377.71,-169 367.71,-165.5 367.71,-172.5"/>
</g>
</g>
</svg>
