<?xml version="1.0" encoding="UTF-8" standalone="no"?>
<!DOCTYPE svg PUBLIC "-//W3C//DTD SVG 1.1//EN"
 "http://www.w3.org/Graphics/SVG/1.1/DTD/svg11.dtd">
<!-- Generated by graphviz version 2.47.0 (20210316.0004)
 -->
<!-- Title: dependencies Pages: 1 -->
<svg width="823pt" height="211pt"
 viewBox="0.00 0.00 823.00 211.00" xmlns="http://www.w3.org/2000/svg" xmlns:xlink="http://www.w3.org/1999/xlink">
<g id="graph0" class="graph" transform="scale(1 1) rotate(0) translate(4 207)">
<title>dependencies</title>
<polygon fill="white" stroke="transparent" points="-4,4 -4,-207 819,-207 819,4 -4,4"/>
<text text-anchor="start" x="386.51" y="-42.4" font-family="Times-12" font-weight="bold" font-size="14.00">Legend</text>
<polygon fill="#ffffb3" stroke="transparent" points="173.5,-10 173.5,-30 193.5,-30 193.5,-10 173.5,-10"/>
<text text-anchor="start" x="197.13" y="-15.4" font-family="Times-12" font-size="14.00"> &#160;Declarations</text>
<polygon fill="#8dd3c7" stroke="transparent" points="286.5,-10 286.5,-30 306.5,-30 306.5,-10 286.5,-10"/>
<text text-anchor="start" x="310.23" y="-15.4" font-family="Times-12" font-size="14.00"> &#160;Module</text>
<polygon fill="#80b1d3" stroke="transparent" points="372.5,-10 372.5,-30 392.5,-30 392.5,-10 372.5,-10"/>
<text text-anchor="start" x="396.28" y="-15.4" font-family="Times-12" font-size="14.00"> &#160;Bootstrap</text>
<polygon fill="#fdb462" stroke="transparent" points="469.5,-10 469.5,-30 489.5,-30 489.5,-10 469.5,-10"/>
<text text-anchor="start" x="493.17" y="-15.4" font-family="Times-12" font-size="14.00"> &#160;Providers</text>
<polygon fill="#fb8072" stroke="transparent" points="565.5,-10 565.5,-30 585.5,-30 585.5,-10 565.5,-10"/>
<text text-anchor="start" x="589.23" y="-15.4" font-family="Times-12" font-size="14.00"> &#160;Exports</text>
<g id="clust1" class="cluster">
<title>cluster_ViewModule</title>
<polygon fill="none" stroke="black" stroke-dasharray="1,5" points="8,-70 8,-195 807,-195 807,-70 8,-70"/>
</g>
<g id="clust2" class="cluster">
<title>cluster_ViewModule_declarations</title>
<polygon fill="none" stroke="black" points="291,-78 291,-130 799,-130 799,-78 291,-78"/>
</g>
<g id="clust6" class="cluster">
<title>cluster_ViewModule_imports</title>
<polygon fill="none" stroke="black" points="16,-78 16,-130 283,-130 283,-78 16,-78"/>
</g>
<!-- ViewHomeComponent -->
<g id="node1" class="node">
<title>ViewHomeComponent</title>
<polygon fill="#ffffb3" stroke="black" points="790.86,-122 645.14,-122 645.14,-86 790.86,-86 790.86,-122"/>
<text text-anchor="middle" x="718" y="-99.8" font-family="Times,serif" font-size="14.00">ViewHomeComponent</text>
</g>
<!-- ViewModule -->
<g id="node4" class="node">
<title>ViewModule</title>
<polygon fill="#8dd3c7" stroke="black" points="418.87,-187 415.87,-191 394.87,-191 391.87,-187 329.13,-187 329.13,-151 418.87,-151 418.87,-187"/>
<text text-anchor="middle" x="374" y="-164.8" font-family="Times,serif" font-size="14.00">ViewModule</text>
</g>
<!-- ViewHomeComponent&#45;&gt;ViewModule -->
<g id="edge1" class="edge">
<title>ViewHomeComponent&#45;&gt;ViewModule</title>
<path fill="none" stroke="black" d="M718,-122.28C718,-143.32 718,-175 718,-175 718,-175 428.97,-175 428.97,-175"/>
<polygon fill="black" stroke="black" points="428.97,-171.5 418.97,-175 428.97,-178.5 428.97,-171.5"/>
</g>
<!-- ViewMessageComponent -->
<g id="node2" class="node">
<title>ViewMessageComponent</title>
<polygon fill="#ffffb3" stroke="black" points="627.13,-122 466.87,-122 466.87,-86 627.13,-86 627.13,-122"/>
<text text-anchor="middle" x="547" y="-99.8" font-family="Times,serif" font-size="14.00">ViewMessageComponent</text>
</g>
<!-- ViewMessageComponent&#45;&gt;ViewModule -->
<g id="edge2" class="edge">
<title>ViewMessageComponent&#45;&gt;ViewModule</title>
<path fill="none" stroke="black" d="M547,-122.02C547,-139.37 547,-163 547,-163 547,-163 429,-163 429,-163"/>
<polygon fill="black" stroke="black" points="429,-159.5 419,-163 429,-166.5 429,-159.5"/>
</g>
<!-- ViewProfileComponent -->
<g id="node3" class="node">
<title>ViewProfileComponent</title>
<polygon fill="#ffffb3" stroke="black" points="448.75,-122 299.25,-122 299.25,-86 448.75,-86 448.75,-122"/>
<text text-anchor="middle" x="374" y="-99.8" font-family="Times,serif" font-size="14.00">ViewProfileComponent</text>
</g>
<!-- ViewProfileComponent&#45;&gt;ViewModule -->
<g id="edge3" class="edge">
<title>ViewProfileComponent&#45;&gt;ViewModule</title>
<path fill="none" stroke="black" d="M374,-122.11C374,-122.11 374,-140.99 374,-140.99"/>
<polygon fill="black" stroke="black" points="370.5,-140.99 374,-150.99 377.5,-140.99 370.5,-140.99"/>
</g>
<!-- SharedModule -->
<g id="node5" class="node">
<title>SharedModule</title>
<polygon fill="#8dd3c7" stroke="black" points="275.42,-122 272.42,-126 251.42,-126 248.42,-122 176.58,-122 176.58,-86 275.42,-86 275.42,-122"/>
<text text-anchor="middle" x="226" y="-99.8" font-family="Times,serif" font-size="14.00">SharedModule</text>
</g>
<!-- SharedModule&#45;&gt;ViewModule -->
<g id="edge4" class="edge">
<title>SharedModule&#45;&gt;ViewModule</title>
<path fill="none" stroke="black" d="M226,-122.02C226,-139.37 226,-163 226,-163 226,-163 318.79,-163 318.79,-163"/>
<polygon fill="black" stroke="black" points="318.79,-166.5 328.79,-163 318.79,-159.5 318.79,-166.5"/>
</g>
<!-- ViewRoutingModule -->
<g id="node6" class="node">
<title>ViewRoutingModule</title>
<polygon fill="#8dd3c7" stroke="black" points="158.49,-122 155.49,-126 134.49,-126 131.49,-122 23.51,-122 23.51,-86 158.49,-86 158.49,-122"/>
<text text-anchor="middle" x="91" y="-99.8" font-family="Times,serif" font-size="14.00">ViewRoutingModule</text>
</g>
<!-- ViewRoutingModule&#45;&gt;ViewModule -->
<g id="edge5" class="edge">
<title>ViewRoutingModule&#45;&gt;ViewModule</title>
<path fill="none" stroke="black" d="M91,-122.28C91,-143.32 91,-175 91,-175 91,-175 318.84,-175 318.84,-175"/>
<polygon fill="black" stroke="black" points="318.84,-178.5 328.84,-175 318.84,-171.5 318.84,-178.5"/>
</g>
</g>
</svg>
