<?xml version="1.0" encoding="UTF-8" standalone="no"?>
<!DOCTYPE svg PUBLIC "-//W3C//DTD SVG 1.1//EN"
 "http://www.w3.org/Graphics/SVG/1.1/DTD/svg11.dtd">
<!-- Generated by graphviz version 2.47.0 (20210316.0004)
 -->
<!-- Title: dependencies Pages: 1 -->
<svg width="694pt" height="284pt"
 viewBox="0.00 0.00 694.00 284.00" xmlns="http://www.w3.org/2000/svg" xmlns:xlink="http://www.w3.org/1999/xlink">
<g id="graph0" class="graph" transform="scale(1 1) rotate(0) translate(4 280)">
<title>dependencies</title>
<polygon fill="white" stroke="transparent" points="-4,4 -4,-280 690,-280 690,4 -4,4"/>
<text text-anchor="start" x="322.01" y="-42.4" font-family="Times-12" font-weight="bold" font-size="14.00">Legend</text>
<polygon fill="#ffffb3" stroke="transparent" points="109,-10 109,-30 129,-30 129,-10 109,-10"/>
<text text-anchor="start" x="132.63" y="-15.4" font-family="Times-12" font-size="14.00"> &#160;Declarations</text>
<polygon fill="#8dd3c7" stroke="transparent" points="222,-10 222,-30 242,-30 242,-10 222,-10"/>
<text text-anchor="start" x="245.73" y="-15.4" font-family="Times-12" font-size="14.00"> &#160;Module</text>
<polygon fill="#80b1d3" stroke="transparent" points="308,-10 308,-30 328,-30 328,-10 308,-10"/>
<text text-anchor="start" x="331.78" y="-15.4" font-family="Times-12" font-size="14.00"> &#160;Bootstrap</text>
<polygon fill="#fdb462" stroke="transparent" points="405,-10 405,-30 425,-30 425,-10 405,-10"/>
<text text-anchor="start" x="428.67" y="-15.4" font-family="Times-12" font-size="14.00"> &#160;Providers</text>
<polygon fill="#fb8072" stroke="transparent" points="501,-10 501,-30 521,-30 521,-10 501,-10"/>
<text text-anchor="start" x="524.73" y="-15.4" font-family="Times-12" font-size="14.00"> &#160;Exports</text>
<g id="clust1" class="cluster">
<title>cluster_MessageModule</title>
<polygon fill="none" stroke="black" stroke-dasharray="1,5" points="8,-70 8,-268 678,-268 678,-70 8,-70"/>
</g>
<g id="clust7" class="cluster">
<title>cluster_MessageModule_exports</title>
<polygon fill="none" stroke="black" points="71,-208 71,-260 615,-260 615,-208 71,-208"/>
</g>
<g id="clust2" class="cluster">
<title>cluster_MessageModule_declarations</title>
<polygon fill="none" stroke="black" points="138,-78 138,-130 670,-130 670,-78 138,-78"/>
</g>
<g id="clust6" class="cluster">
<title>cluster_MessageModule_imports</title>
<polygon fill="none" stroke="black" points="16,-78 16,-130 130,-130 130,-78 16,-78"/>
</g>
<!-- MessageFormComponent -->
<g id="node1" class="node">
<title>MessageFormComponent</title>
<polygon fill="#ffffb3" stroke="black" points="662.14,-122 501.86,-122 501.86,-86 662.14,-86 662.14,-122"/>
<text text-anchor="middle" x="582" y="-99.8" font-family="Times,serif" font-size="14.00">MessageFormComponent</text>
</g>
<!-- MessageModule -->
<g id="node4" class="node">
<title>MessageModule</title>
<polygon fill="#8dd3c7" stroke="black" points="401.03,-187 398.03,-191 377.03,-191 374.03,-187 292.97,-187 292.97,-151 401.03,-151 401.03,-187"/>
<text text-anchor="middle" x="347" y="-164.8" font-family="Times,serif" font-size="14.00">MessageModule</text>
</g>
<!-- MessageFormComponent&#45;&gt;MessageModule -->
<g id="edge1" class="edge">
<title>MessageFormComponent&#45;&gt;MessageModule</title>
<path fill="none" stroke="black" d="M554.38,-122.02C554.38,-139.37 554.38,-163 554.38,-163 554.38,-163 411.21,-163 411.21,-163"/>
<polygon fill="black" stroke="black" points="411.21,-159.5 401.21,-163 411.21,-166.5 411.21,-159.5"/>
</g>
<!-- MessageListComponent -->
<g id="node2" class="node">
<title>MessageListComponent</title>
<polygon fill="#ffffb3" stroke="black" points="484.09,-122 331.91,-122 331.91,-86 484.09,-86 484.09,-122"/>
<text text-anchor="middle" x="408" y="-99.8" font-family="Times,serif" font-size="14.00">MessageListComponent</text>
</g>
<!-- MessageListComponent&#45;&gt;MessageModule -->
<g id="edge2" class="edge">
<title>MessageListComponent&#45;&gt;MessageModule</title>
<path fill="none" stroke="black" d="M366.61,-122.11C366.61,-122.11 366.61,-140.99 366.61,-140.99"/>
<polygon fill="black" stroke="black" points="363.11,-140.99 366.61,-150.99 370.11,-140.99 363.11,-140.99"/>
</g>
<!-- MessageSearchComponent -->
<g id="node3" class="node">
<title>MessageSearchComponent</title>
<polygon fill="#ffffb3" stroke="black" points="314.4,-122 145.6,-122 145.6,-86 314.4,-86 314.4,-122"/>
<text text-anchor="middle" x="230" y="-99.8" font-family="Times,serif" font-size="14.00">MessageSearchComponent</text>
</g>
<!-- MessageSearchComponent&#45;&gt;MessageModule -->
<g id="edge3" class="edge">
<title>MessageSearchComponent&#45;&gt;MessageModule</title>
<path fill="none" stroke="black" d="M303.47,-122.11C303.47,-122.11 303.47,-140.99 303.47,-140.99"/>
<polygon fill="black" stroke="black" points="299.97,-140.99 303.47,-150.99 306.97,-140.99 299.97,-140.99"/>
</g>
<!-- MessageFormComponent  -->
<g id="node6" class="node">
<title>MessageFormComponent </title>
<polygon fill="#fb8072" stroke="black" points="607.14,-252 442.86,-252 442.86,-216 607.14,-216 607.14,-252"/>
<text text-anchor="middle" x="525" y="-229.8" font-family="Times,serif" font-size="14.00">MessageFormComponent </text>
</g>
<!-- MessageModule&#45;&gt;MessageFormComponent  -->
<g id="edge5" class="edge">
<title>MessageModule&#45;&gt;MessageFormComponent </title>
<path fill="none" stroke="black" stroke-dasharray="5,2" d="M401.15,-175C431.57,-175 463.49,-175 463.49,-175 463.49,-175 463.49,-205.98 463.49,-205.98"/>
<polygon fill="black" stroke="black" points="459.99,-205.98 463.49,-215.98 466.99,-205.98 459.99,-205.98"/>
</g>
<!-- MessageListComponent  -->
<g id="node7" class="node">
<title>MessageListComponent </title>
<polygon fill="#fb8072" stroke="black" points="424.59,-252 269.41,-252 269.41,-216 424.59,-216 424.59,-252"/>
<text text-anchor="middle" x="347" y="-229.8" font-family="Times,serif" font-size="14.00">MessageListComponent </text>
</g>
<!-- MessageModule&#45;&gt;MessageListComponent  -->
<g id="edge6" class="edge">
<title>MessageModule&#45;&gt;MessageListComponent </title>
<path fill="none" stroke="black" stroke-dasharray="5,2" d="M347,-187.11C347,-187.11 347,-205.99 347,-205.99"/>
<polygon fill="black" stroke="black" points="343.5,-205.99 347,-215.99 350.5,-205.99 343.5,-205.99"/>
</g>
<!-- MessageSearchComponent  -->
<g id="node8" class="node">
<title>MessageSearchComponent </title>
<polygon fill="#fb8072" stroke="black" points="250.9,-252 79.1,-252 79.1,-216 250.9,-216 250.9,-252"/>
<text text-anchor="middle" x="165" y="-229.8" font-family="Times,serif" font-size="14.00">MessageSearchComponent </text>
</g>
<!-- MessageModule&#45;&gt;MessageSearchComponent  -->
<g id="edge7" class="edge">
<title>MessageModule&#45;&gt;MessageSearchComponent </title>
<path fill="none" stroke="black" stroke-dasharray="5,2" d="M292.92,-175C250.43,-175 198.38,-175 198.38,-175 198.38,-175 198.38,-205.98 198.38,-205.98"/>
<polygon fill="black" stroke="black" points="194.88,-205.98 198.38,-215.98 201.88,-205.98 194.88,-205.98"/>
</g>
<!-- SharedModule -->
<g id="node5" class="node">
<title>SharedModule</title>
<polygon fill="#8dd3c7" stroke="black" points="122.42,-122 119.42,-126 98.42,-126 95.42,-122 23.58,-122 23.58,-86 122.42,-86 122.42,-122"/>
<text text-anchor="middle" x="73" y="-99.8" font-family="Times,serif" font-size="14.00">SharedModule</text>
</g>
<!-- SharedModule&#45;&gt;MessageModule -->
<g id="edge4" class="edge">
<title>SharedModule&#45;&gt;MessageModule</title>
<path fill="none" stroke="black" d="M100.63,-122.02C100.63,-139.37 100.63,-163 100.63,-163 100.63,-163 282.93,-163 282.93,-163"/>
<polygon fill="black" stroke="black" points="282.93,-166.5 292.93,-163 282.93,-159.5 282.93,-166.5"/>
</g>
</g>
</svg>
