<?xml version="1.0" encoding="UTF-8" standalone="no"?>
<!DOCTYPE svg PUBLIC "-//W3C//DTD SVG 1.1//EN"
 "http://www.w3.org/Graphics/SVG/1.1/DTD/svg11.dtd">
<!-- Generated by graphviz version 2.47.0 (20210316.0004)
 -->
<!-- Title: dependencies Pages: 1 -->
<svg width="4084pt" height="290pt"
 viewBox="0.00 0.00 4084.00 290.00" xmlns="http://www.w3.org/2000/svg" xmlns:xlink="http://www.w3.org/1999/xlink">
<g id="graph0" class="graph" transform="scale(1 1) rotate(0) translate(4 286)">
<title>dependencies</title>
<polygon fill="white" stroke="transparent" points="-4,4 -4,-286 4080,-286 4080,4 -4,4"/>
<text text-anchor="start" x="2017.01" y="-42.4" font-family="Times-12" font-weight="bold" font-size="14.00">Legend</text>
<polygon fill="#ffffb3" stroke="transparent" points="1804,-10 1804,-30 1824,-30 1824,-10 1804,-10"/>
<text text-anchor="start" x="1827.63" y="-15.4" font-family="Times-12" font-size="14.00"> &#160;Declarations</text>
<polygon fill="#8dd3c7" stroke="transparent" points="1917,-10 1917,-30 1937,-30 1937,-10 1917,-10"/>
<text text-anchor="start" x="1940.73" y="-15.4" font-family="Times-12" font-size="14.00"> &#160;Module</text>
<polygon fill="#80b1d3" stroke="transparent" points="2003,-10 2003,-30 2023,-30 2023,-10 2003,-10"/>
<text text-anchor="start" x="2026.78" y="-15.4" font-family="Times-12" font-size="14.00"> &#160;Bootstrap</text>
<polygon fill="#fdb462" stroke="transparent" points="2100,-10 2100,-30 2120,-30 2120,-10 2100,-10"/>
<text text-anchor="start" x="2123.67" y="-15.4" font-family="Times-12" font-size="14.00"> &#160;Providers</text>
<polygon fill="#fb8072" stroke="transparent" points="2196,-10 2196,-30 2216,-30 2216,-10 2196,-10"/>
<text text-anchor="start" x="2219.73" y="-15.4" font-family="Times-12" font-size="14.00"> &#160;Exports</text>
<g id="clust1" class="cluster">
<title>cluster_AppModule</title>
<polygon fill="none" stroke="black" stroke-dasharray="1,5" points="8,-70 8,-274 298,-274 298,-70 8,-70"/>
</g>
<g id="clust2" class="cluster">
<title>cluster_AppModule_declarations</title>
<polygon fill="none" stroke="black" points="168,-78 168,-130 290,-130 290,-78 168,-78"/>
</g>
<g id="clust4" class="cluster">
<title>cluster_AppModule_imports</title>
<polygon fill="none" stroke="black" points="16,-78 16,-130 160,-130 160,-78 16,-78"/>
</g>
<g id="clust6" class="cluster">
<title>cluster_AppModule_bootstrap</title>
<polygon fill="none" stroke="black" points="96,-214 96,-266 220,-266 220,-214 96,-214"/>
</g>
<g id="clust14" class="cluster">
<title>cluster_BaseModule</title>
<polygon fill="none" stroke="black" stroke-dasharray="1,5" points="306,-70 306,-274 1295,-274 1295,-70 306,-70"/>
</g>
<g id="clust15" class="cluster">
<title>cluster_BaseModule_declarations</title>
<polygon fill="none" stroke="black" points="452,-78 452,-130 1287,-130 1287,-78 452,-78"/>
</g>
<g id="clust21" class="cluster">
<title>cluster_BaseModule_imports</title>
<polygon fill="none" stroke="black" points="314,-78 314,-130 444,-130 444,-78 314,-78"/>
</g>
<g id="clust22" class="cluster">
<title>cluster_BaseModule_exports</title>
<polygon fill="none" stroke="black" points="369,-214 369,-266 1224,-266 1224,-214 369,-214"/>
</g>
<g id="clust25" class="cluster">
<title>cluster_CoreModule</title>
<polygon fill="none" stroke="black" stroke-dasharray="1,5" points="1303,-70 1303,-198 1453,-198 1453,-70 1303,-70"/>
</g>
<g id="clust30" class="cluster">
<title>cluster_CoreModule_providers</title>
<polygon fill="none" stroke="black" points="1311,-78 1311,-130 1445,-130 1445,-78 1311,-78"/>
</g>
<g id="clust31" class="cluster">
<title>cluster_LayoutModule</title>
<polygon fill="none" stroke="black" stroke-dasharray="1,5" points="1461,-70 1461,-198 1591,-198 1591,-70 1461,-70"/>
</g>
<g id="clust33" class="cluster">
<title>cluster_LayoutModule_imports</title>
<polygon fill="none" stroke="black" points="1469,-78 1469,-130 1583,-130 1583,-78 1469,-78"/>
</g>
<g id="clust37" class="cluster">
<title>cluster_MessageModule</title>
<polygon fill="none" stroke="black" stroke-dasharray="1,5" points="1865,-70 1865,-274 2425,-274 2425,-70 1865,-70"/>
</g>
<g id="clust38" class="cluster">
<title>cluster_MessageModule_declarations</title>
<polygon fill="none" stroke="black" points="1873,-78 1873,-130 2406,-130 2406,-78 1873,-78"/>
</g>
<g id="clust43" class="cluster">
<title>cluster_MessageModule_exports</title>
<polygon fill="none" stroke="black" points="1873,-214 1873,-266 2417,-266 2417,-214 1873,-214"/>
</g>
<g id="clust52" class="cluster">
<title>cluster_NotificationModule</title>
<polygon fill="none" stroke="black" stroke-dasharray="1,5" points="2433,-70 2433,-274 2617,-274 2617,-70 2433,-70"/>
</g>
<g id="clust53" class="cluster">
<title>cluster_NotificationModule_declarations</title>
<polygon fill="none" stroke="black" points="2442,-78 2442,-130 2606,-130 2606,-78 2442,-78"/>
</g>
<g id="clust56" class="cluster">
<title>cluster_NotificationModule_exports</title>
<polygon fill="none" stroke="black" points="2441,-214 2441,-266 2609,-266 2609,-214 2441,-214"/>
</g>
<g id="clust59" class="cluster">
<title>cluster_SharedModule</title>
<polygon fill="none" stroke="black" stroke-dasharray="1,5" points="1599,-138 1599,-206 1857,-206 1857,-138 1599,-138"/>
</g>
<g id="clust62" class="cluster">
<title>cluster_SharedModule_exports</title>
<polygon fill="none" stroke="black" points="1607,-146 1607,-198 1849,-198 1849,-146 1607,-146"/>
</g>
<g id="clust65" class="cluster">
<title>cluster_UserModule</title>
<polygon fill="none" stroke="black" stroke-dasharray="1,5" points="2625,-70 2625,-274 3378,-274 3378,-70 2625,-70"/>
</g>
<g id="clust66" class="cluster">
<title>cluster_UserModule_declarations</title>
<polygon fill="none" stroke="black" points="2636,-78 2636,-130 3359,-130 3359,-78 2636,-78"/>
</g>
<g id="clust72" class="cluster">
<title>cluster_UserModule_exports</title>
<polygon fill="none" stroke="black" points="2633,-214 2633,-266 3370,-266 3370,-214 2633,-214"/>
</g>
<g id="clust75" class="cluster">
<title>cluster_ViewModule</title>
<polygon fill="none" stroke="black" stroke-dasharray="1,5" points="3386,-70 3386,-198 4068,-198 4068,-70 3386,-70"/>
</g>
<g id="clust76" class="cluster">
<title>cluster_ViewModule_declarations</title>
<polygon fill="none" stroke="black" points="3552,-78 3552,-130 4060,-130 4060,-78 3552,-78"/>
</g>
<g id="clust80" class="cluster">
<title>cluster_ViewModule_imports</title>
<polygon fill="none" stroke="black" points="3394,-78 3394,-130 3544,-130 3544,-78 3394,-78"/>
</g>
<!-- AppComponent -->
<g id="node1" class="node">
<title>AppComponent</title>
<polygon fill="#ffffb3" stroke="black" points="281.94,-122 176.06,-122 176.06,-86 281.94,-86 281.94,-122"/>
<text text-anchor="middle" x="229" y="-99.8" font-family="Times,serif" font-size="14.00">AppComponent</text>
</g>
<!-- AppModule -->
<g id="node2" class="node">
<title>AppModule</title>
<polygon fill="#8dd3c7" stroke="black" points="199.66,-190 196.66,-194 175.66,-194 172.66,-190 116.34,-190 116.34,-154 199.66,-154 199.66,-190"/>
<text text-anchor="middle" x="158" y="-167.8" font-family="Times,serif" font-size="14.00">AppModule</text>
</g>
<!-- AppComponent&#45;&gt;AppModule -->
<g id="edge1" class="edge">
<title>AppComponent&#45;&gt;AppModule</title>
<path fill="none" stroke="black" d="M188.05,-122.22C188.05,-122.22 188.05,-143.73 188.05,-143.73"/>
<polygon fill="black" stroke="black" points="184.55,-143.73 188.05,-153.73 191.55,-143.73 184.55,-143.73"/>
</g>
<!-- AppComponent  -->
<g id="node4" class="node">
<title>AppComponent </title>
<polygon fill="#80b1d3" stroke="black" points="212.44,-258 103.56,-258 103.56,-222 212.44,-222 212.44,-258"/>
<text text-anchor="middle" x="158" y="-235.8" font-family="Times,serif" font-size="14.00">AppComponent </text>
</g>
<!-- AppModule&#45;&gt;AppComponent  -->
<g id="edge3" class="edge">
<title>AppModule&#45;&gt;AppComponent </title>
<path fill="none" stroke="black" stroke-dasharray="1,5" d="M158,-190.22C158,-190.22 158,-211.73 158,-211.73"/>
<polygon fill="black" stroke="black" points="154.5,-211.73 158,-221.73 161.5,-211.73 154.5,-211.73"/>
</g>
<!-- AppRoutingModule -->
<g id="node3" class="node">
<title>AppRoutingModule</title>
<polygon fill="#8dd3c7" stroke="black" points="152.27,-122 149.27,-126 128.27,-126 125.27,-122 23.73,-122 23.73,-86 152.27,-86 152.27,-122"/>
<text text-anchor="middle" x="88" y="-99.8" font-family="Times,serif" font-size="14.00">AppRoutingModule</text>
</g>
<!-- AppRoutingModule&#45;&gt;AppModule -->
<g id="edge2" class="edge">
<title>AppRoutingModule&#45;&gt;AppModule</title>
<path fill="none" stroke="black" d="M134.28,-122.22C134.28,-122.22 134.28,-143.73 134.28,-143.73"/>
<polygon fill="black" stroke="black" points="130.78,-143.73 134.28,-153.73 137.78,-143.73 130.78,-143.73"/>
</g>
<!-- BaseButtonComponent -->
<g id="node5" class="node">
<title>BaseButtonComponent</title>
<polygon fill="#ffffb3" stroke="black" points="606.16,-122 459.84,-122 459.84,-86 606.16,-86 606.16,-122"/>
<text text-anchor="middle" x="533" y="-99.8" font-family="Times,serif" font-size="14.00">BaseButtonComponent</text>
</g>
<!-- BaseModule -->
<g id="node10" class="node">
<title>BaseModule</title>
<polygon fill="#8dd3c7" stroke="black" points="848.26,-190 845.26,-194 824.26,-194 821.26,-190 761.74,-190 761.74,-154 848.26,-154 848.26,-190"/>
<text text-anchor="middle" x="805" y="-167.8" font-family="Times,serif" font-size="14.00">BaseModule</text>
</g>
<!-- BaseButtonComponent&#45;&gt;BaseModule -->
<g id="edge4" class="edge">
<title>BaseButtonComponent&#45;&gt;BaseModule</title>
<path fill="none" stroke="black" d="M584.62,-122.03C584.62,-139.06 584.62,-162 584.62,-162 584.62,-162 751.72,-162 751.72,-162"/>
<polygon fill="black" stroke="black" points="751.72,-165.5 761.72,-162 751.72,-158.5 751.72,-165.5"/>
</g>
<!-- BaseContainerComponent -->
<g id="node6" class="node">
<title>BaseContainerComponent</title>
<polygon fill="#ffffb3" stroke="black" points="1278.75,-122 1115.25,-122 1115.25,-86 1278.75,-86 1278.75,-122"/>
<text text-anchor="middle" x="1197" y="-99.8" font-family="Times,serif" font-size="14.00">BaseContainerComponent</text>
</g>
<!-- BaseContainerComponent&#45;&gt;BaseModule -->
<g id="edge5" class="edge">
<title>BaseContainerComponent&#45;&gt;BaseModule</title>
<path fill="none" stroke="black" d="M1165.71,-122.11C1165.71,-141.34 1165.71,-169 1165.71,-169 1165.71,-169 858.51,-169 858.51,-169"/>
<polygon fill="black" stroke="black" points="858.51,-165.5 848.51,-169 858.51,-172.5 858.51,-165.5"/>
</g>
<!-- BaseFooterComponent -->
<g id="node7" class="node">
<title>BaseFooterComponent</title>
<polygon fill="#ffffb3" stroke="black" points="1097.59,-122 952.41,-122 952.41,-86 1097.59,-86 1097.59,-122"/>
<text text-anchor="middle" x="1025" y="-99.8" font-family="Times,serif" font-size="14.00">BaseFooterComponent</text>
</g>
<!-- BaseFooterComponent&#45;&gt;BaseModule -->
<g id="edge6" class="edge">
<title>BaseFooterComponent&#45;&gt;BaseModule</title>
<path fill="none" stroke="black" d="M1000.84,-122.03C1000.84,-139.06 1000.84,-162 1000.84,-162 1000.84,-162 858.46,-162 858.46,-162"/>
<polygon fill="black" stroke="black" points="858.46,-158.5 848.46,-162 858.46,-165.5 858.46,-158.5"/>
</g>
<!-- BaseHeaderComponent -->
<g id="node8" class="node">
<title>BaseHeaderComponent</title>
<polygon fill="#ffffb3" stroke="black" points="934.45,-122 785.55,-122 785.55,-86 934.45,-86 934.45,-122"/>
<text text-anchor="middle" x="860" y="-99.8" font-family="Times,serif" font-size="14.00">BaseHeaderComponent</text>
</g>
<!-- BaseHeaderComponent&#45;&gt;BaseModule -->
<g id="edge7" class="edge">
<title>BaseHeaderComponent&#45;&gt;BaseModule</title>
<path fill="none" stroke="black" d="M816.95,-122.22C816.95,-122.22 816.95,-143.73 816.95,-143.73"/>
<polygon fill="black" stroke="black" points="813.45,-143.73 816.95,-153.73 820.45,-143.73 813.45,-143.73"/>
</g>
<!-- BaseImageComponent -->
<g id="node9" class="node">
<title>BaseImageComponent</title>
<polygon fill="#ffffb3" stroke="black" points="767.52,-122 624.48,-122 624.48,-86 767.52,-86 767.52,-122"/>
<text text-anchor="middle" x="696" y="-99.8" font-family="Times,serif" font-size="14.00">BaseImageComponent</text>
</g>
<!-- BaseImageComponent&#45;&gt;BaseModule -->
<g id="edge8" class="edge">
<title>BaseImageComponent&#45;&gt;BaseModule</title>
<path fill="none" stroke="black" d="M767.7,-104C773.19,-104 776.64,-104 776.64,-104 776.64,-104 776.64,-143.78 776.64,-143.78"/>
<polygon fill="black" stroke="black" points="773.14,-143.78 776.64,-153.78 780.14,-143.78 773.14,-143.78"/>
</g>
<!-- BaseButtonComponent  -->
<g id="node12" class="node">
<title>BaseButtonComponent </title>
<polygon fill="#fb8072" stroke="black" points="713.16,-258 562.84,-258 562.84,-222 713.16,-222 713.16,-258"/>
<text text-anchor="middle" x="638" y="-235.8" font-family="Times,serif" font-size="14.00">BaseButtonComponent </text>
</g>
<!-- BaseModule&#45;&gt;BaseButtonComponent  -->
<g id="edge10" class="edge">
<title>BaseModule&#45;&gt;BaseButtonComponent </title>
<path fill="none" stroke="black" stroke-dasharray="5,2" d="M761.49,-183C721.59,-183 668.66,-183 668.66,-183 668.66,-183 668.66,-211.96 668.66,-211.96"/>
<polygon fill="black" stroke="black" points="665.16,-211.96 668.66,-221.96 672.16,-211.96 665.16,-211.96"/>
</g>
<!-- BaseContainerComponent  -->
<g id="node13" class="node">
<title>BaseContainerComponent </title>
<polygon fill="#fb8072" stroke="black" points="544.75,-258 377.25,-258 377.25,-222 544.75,-222 544.75,-258"/>
<text text-anchor="middle" x="461" y="-235.8" font-family="Times,serif" font-size="14.00">BaseContainerComponent </text>
</g>
<!-- BaseModule&#45;&gt;BaseContainerComponent  -->
<g id="edge11" class="edge">
<title>BaseModule&#45;&gt;BaseContainerComponent </title>
<path fill="none" stroke="black" stroke-dasharray="5,2" d="M761.61,-176C677.87,-176 502.15,-176 502.15,-176 502.15,-176 502.15,-211.83 502.15,-211.83"/>
<polygon fill="black" stroke="black" points="498.65,-211.83 502.15,-221.83 505.65,-211.83 498.65,-211.83"/>
</g>
<!-- BaseFooterComponent  -->
<g id="node14" class="node">
<title>BaseFooterComponent </title>
<polygon fill="#fb8072" stroke="black" points="1216.09,-258 1067.91,-258 1067.91,-222 1216.09,-222 1216.09,-258"/>
<text text-anchor="middle" x="1142" y="-235.8" font-family="Times,serif" font-size="14.00">BaseFooterComponent </text>
</g>
<!-- BaseModule&#45;&gt;BaseFooterComponent  -->
<g id="edge12" class="edge">
<title>BaseModule&#45;&gt;BaseFooterComponent </title>
<path fill="none" stroke="black" stroke-dasharray="5,2" d="M848.38,-176C926.46,-176 1082.62,-176 1082.62,-176 1082.62,-176 1082.62,-211.83 1082.62,-211.83"/>
<polygon fill="black" stroke="black" points="1079.13,-211.83 1082.62,-221.83 1086.13,-211.83 1079.13,-211.83"/>
</g>
<!-- BaseHeaderComponent  -->
<g id="node15" class="node">
<title>BaseHeaderComponent </title>
<polygon fill="#fb8072" stroke="black" points="1049.45,-258 896.55,-258 896.55,-222 1049.45,-222 1049.45,-258"/>
<text text-anchor="middle" x="973" y="-235.8" font-family="Times,serif" font-size="14.00">BaseHeaderComponent </text>
</g>
<!-- BaseModule&#45;&gt;BaseHeaderComponent  -->
<g id="edge13" class="edge">
<title>BaseModule&#45;&gt;BaseHeaderComponent </title>
<path fill="none" stroke="black" stroke-dasharray="5,2" d="M848.4,-183C879.4,-183 915.62,-183 915.62,-183 915.62,-183 915.62,-211.96 915.62,-211.96"/>
<polygon fill="black" stroke="black" points="912.13,-211.96 915.62,-221.96 919.13,-211.96 912.13,-211.96"/>
</g>
<!-- BaseImageComponent  -->
<g id="node16" class="node">
<title>BaseImageComponent </title>
<polygon fill="#fb8072" stroke="black" points="878.52,-258 731.48,-258 731.48,-222 878.52,-222 878.52,-258"/>
<text text-anchor="middle" x="805" y="-235.8" font-family="Times,serif" font-size="14.00">BaseImageComponent </text>
</g>
<!-- BaseModule&#45;&gt;BaseImageComponent  -->
<g id="edge14" class="edge">
<title>BaseModule&#45;&gt;BaseImageComponent </title>
<path fill="none" stroke="black" stroke-dasharray="5,2" d="M805,-190.22C805,-190.22 805,-211.73 805,-211.73"/>
<polygon fill="black" stroke="black" points="801.5,-211.73 805,-221.73 808.5,-211.73 801.5,-211.73"/>
</g>
<!-- NgExportModule -->
<g id="node11" class="node">
<title>NgExportModule</title>
<polygon fill="#8dd3c7" stroke="black" points="436.26,-122 433.26,-126 412.26,-126 409.26,-122 321.74,-122 321.74,-86 436.26,-86 436.26,-122"/>
<text text-anchor="middle" x="379" y="-99.8" font-family="Times,serif" font-size="14.00">NgExportModule</text>
</g>
<!-- NgExportModule&#45;&gt;BaseModule -->
<g id="edge9" class="edge">
<title>NgExportModule&#45;&gt;BaseModule</title>
<path fill="none" stroke="black" d="M406.88,-122.11C406.88,-141.34 406.88,-169 406.88,-169 406.88,-169 751.64,-169 751.64,-169"/>
<polygon fill="black" stroke="black" points="751.64,-172.5 761.64,-169 751.64,-165.5 751.64,-172.5"/>
</g>
<!-- AuthService -->
<g id="node17" class="node">
<title>AuthService</title>
<ellipse fill="#fdb462" stroke="black" cx="1378" cy="-104" rx="59.11" ry="18"/>
<text text-anchor="middle" x="1378" y="-99.8" font-family="Times,serif" font-size="14.00">AuthService</text>
</g>
<!-- CoreModule -->
<g id="node18" class="node">
<title>CoreModule</title>
<polygon fill="#8dd3c7" stroke="black" points="1421.26,-190 1418.26,-194 1397.26,-194 1394.26,-190 1334.74,-190 1334.74,-154 1421.26,-154 1421.26,-190"/>
<text text-anchor="middle" x="1378" y="-167.8" font-family="Times,serif" font-size="14.00">CoreModule</text>
</g>
<!-- AuthService&#45;&gt;CoreModule -->
<g id="edge15" class="edge">
<title>AuthService&#45;&gt;CoreModule</title>
<path fill="none" stroke="black" d="M1378,-122.22C1378,-122.22 1378,-143.73 1378,-143.73"/>
<polygon fill="black" stroke="black" points="1374.5,-143.73 1378,-153.73 1381.5,-143.73 1374.5,-143.73"/>
</g>
<!-- SharedModule -->
<g id="node19" class="node">
<title>SharedModule</title>
<polygon fill="#8dd3c7" stroke="black" points="1575.42,-122 1572.42,-126 1551.42,-126 1548.42,-122 1476.58,-122 1476.58,-86 1575.42,-86 1575.42,-122"/>
<text text-anchor="middle" x="1526" y="-99.8" font-family="Times,serif" font-size="14.00">SharedModule</text>
</g>
<!-- LayoutModule -->
<g id="node20" class="node">
<title>LayoutModule</title>
<polygon fill="#8dd3c7" stroke="black" points="1575.71,-190 1572.71,-194 1551.71,-194 1548.71,-190 1476.29,-190 1476.29,-154 1575.71,-154 1575.71,-190"/>
<text text-anchor="middle" x="1526" y="-167.8" font-family="Times,serif" font-size="14.00">LayoutModule</text>
</g>
<!-- SharedModule&#45;&gt;LayoutModule -->
<g id="edge16" class="edge">
<title>SharedModule&#45;&gt;LayoutModule</title>
<path fill="none" stroke="black" d="M1496.47,-122.22C1496.47,-122.22 1496.47,-143.73 1496.47,-143.73"/>
<polygon fill="black" stroke="black" points="1492.97,-143.73 1496.47,-153.73 1499.97,-143.73 1492.97,-143.73"/>
</g>
<!-- MessageModule -->
<g id="node24" class="node">
<title>MessageModule</title>
<polygon fill="#8dd3c7" stroke="black" points="2191.03,-190 2188.03,-194 2167.03,-194 2164.03,-190 2082.97,-190 2082.97,-154 2191.03,-154 2191.03,-190"/>
<text text-anchor="middle" x="2137" y="-167.8" font-family="Times,serif" font-size="14.00">MessageModule</text>
</g>
<!-- SharedModule&#45;&gt;MessageModule -->
<g id="edge20" class="edge">
<title>SharedModule&#45;&gt;MessageModule</title>
<path fill="none" stroke="black" d="M1575.42,-95C1668.58,-95 1860.9,-95 1860.9,-95 1860.9,-95 1860.9,-172 1860.9,-172 1860.9,-172 2072.78,-172 2072.78,-172"/>
<polygon fill="black" stroke="black" points="2072.78,-175.5 2082.78,-172 2072.78,-168.5 2072.78,-175.5"/>
</g>
<!-- NotificationModule -->
<g id="node29" class="node">
<title>NotificationModule</title>
<polygon fill="#8dd3c7" stroke="black" points="2587.7,-190 2584.7,-194 2563.7,-194 2560.7,-190 2460.3,-190 2460.3,-154 2587.7,-154 2587.7,-190"/>
<text text-anchor="middle" x="2524" y="-167.8" font-family="Times,serif" font-size="14.00">NotificationModule</text>
</g>
<!-- SharedModule&#45;&gt;NotificationModule -->
<g id="edge25" class="edge">
<title>SharedModule&#45;&gt;NotificationModule</title>
<path fill="none" stroke="black" d="M1516.16,-122.06C1516.16,-133.44 1516.16,-146 1516.16,-146 1516.16,-146 2502.8,-146 2502.8,-146 2502.8,-146 2502.8,-146.79 2502.8,-146.79"/>
<polygon fill="black" stroke="black" points="2499.3,-143.94 2502.8,-153.94 2506.3,-143.94 2499.3,-143.94"/>
</g>
<!-- BaseModule  -->
<g id="node31" class="node">
<title>BaseModule </title>
<polygon fill="#fb8072" stroke="black" points="1841.26,-190 1750.74,-190 1750.74,-154 1841.26,-154 1841.26,-190"/>
<text text-anchor="middle" x="1796" y="-167.8" font-family="Times,serif" font-size="14.00">BaseModule </text>
</g>
<!-- SharedModule&#45;&gt;BaseModule  -->
<g id="edge27" class="edge">
<title>SharedModule&#45;&gt;BaseModule </title>
<path fill="none" stroke="black" stroke-dasharray="5,2" d="M1575.52,-104C1653.47,-104 1796,-104 1796,-104 1796,-104 1796,-143.78 1796,-143.78"/>
<polygon fill="black" stroke="black" points="1792.5,-143.78 1796,-153.78 1799.5,-143.78 1792.5,-143.78"/>
</g>
<!-- NgExportModule  -->
<g id="node32" class="node">
<title>NgExportModule </title>
<polygon fill="#fb8072" stroke="black" points="1733.26,-190 1614.74,-190 1614.74,-154 1733.26,-154 1733.26,-190"/>
<text text-anchor="middle" x="1674" y="-167.8" font-family="Times,serif" font-size="14.00">NgExportModule </text>
</g>
<!-- SharedModule&#45;&gt;NgExportModule  -->
<g id="edge28" class="edge">
<title>SharedModule&#45;&gt;NgExportModule </title>
<path fill="none" stroke="black" stroke-dasharray="5,2" d="M1575.28,-113C1618.34,-113 1674,-113 1674,-113 1674,-113 1674,-143.98 1674,-143.98"/>
<polygon fill="black" stroke="black" points="1670.5,-143.98 1674,-153.98 1677.5,-143.98 1670.5,-143.98"/>
</g>
<!-- UserModule -->
<g id="node37" class="node">
<title>UserModule</title>
<polygon fill="#8dd3c7" stroke="black" points="2964.98,-190 2961.98,-194 2940.98,-194 2937.98,-190 2879.02,-190 2879.02,-154 2964.98,-154 2964.98,-190"/>
<text text-anchor="middle" x="2922" y="-167.8" font-family="Times,serif" font-size="14.00">UserModule</text>
</g>
<!-- SharedModule&#45;&gt;UserModule -->
<g id="edge33" class="edge">
<title>SharedModule&#45;&gt;UserModule</title>
<path fill="none" stroke="black" d="M1535.84,-122.19C1535.84,-130.28 1535.84,-138 1535.84,-138 1535.84,-138 2907.67,-138 2907.67,-138 2907.67,-138 2907.67,-143.81 2907.67,-143.81"/>
<polygon fill="black" stroke="black" points="2904.17,-143.81 2907.67,-153.81 2911.17,-143.81 2904.17,-143.81"/>
</g>
<!-- ViewModule -->
<g id="node45" class="node">
<title>ViewModule</title>
<polygon fill="#8dd3c7" stroke="black" points="3677.87,-190 3674.87,-194 3653.87,-194 3650.87,-190 3588.13,-190 3588.13,-154 3677.87,-154 3677.87,-190"/>
<text text-anchor="middle" x="3633" y="-167.8" font-family="Times,serif" font-size="14.00">ViewModule</text>
</g>
<!-- SharedModule&#45;&gt;ViewModule -->
<g id="edge41" class="edge">
<title>SharedModule&#45;&gt;ViewModule</title>
<path fill="none" stroke="black" d="M1555.53,-122.06C1555.53,-126.49 1555.53,-130 1555.53,-130 1555.53,-130 3618.02,-130 3618.02,-130 3618.02,-130 3618.02,-143.94 3618.02,-143.94"/>
<polygon fill="black" stroke="black" points="3614.52,-143.94 3618.02,-153.94 3621.52,-143.94 3614.52,-143.94"/>
</g>
<!-- MessageFormComponent -->
<g id="node21" class="node">
<title>MessageFormComponent</title>
<polygon fill="#ffffb3" stroke="black" points="2041.14,-122 1880.86,-122 1880.86,-86 2041.14,-86 2041.14,-122"/>
<text text-anchor="middle" x="1961" y="-99.8" font-family="Times,serif" font-size="14.00">MessageFormComponent</text>
</g>
<!-- MessageFormComponent&#45;&gt;MessageModule -->
<g id="edge17" class="edge">
<title>MessageFormComponent&#45;&gt;MessageModule</title>
<path fill="none" stroke="black" d="M1984.93,-122.02C1984.93,-139.37 1984.93,-163 1984.93,-163 1984.93,-163 2072.96,-163 2072.96,-163"/>
<polygon fill="black" stroke="black" points="2072.96,-166.5 2082.96,-163 2072.96,-159.5 2072.96,-166.5"/>
</g>
<!-- MessageListComponent -->
<g id="node22" class="node">
<title>MessageListComponent</title>
<polygon fill="#ffffb3" stroke="black" points="2398.09,-122 2245.91,-122 2245.91,-86 2398.09,-86 2398.09,-122"/>
<text text-anchor="middle" x="2322" y="-99.8" font-family="Times,serif" font-size="14.00">MessageListComponent</text>
</g>
<!-- MessageListComponent&#45;&gt;MessageModule -->
<g id="edge18" class="edge">
<title>MessageListComponent&#45;&gt;MessageModule</title>
<path fill="none" stroke="black" d="M2322,-122.27C2322,-140.56 2322,-166 2322,-166 2322,-166 2201.51,-166 2201.51,-166"/>
<polygon fill="black" stroke="black" points="2201.51,-162.5 2191.51,-166 2201.51,-169.5 2201.51,-162.5"/>
</g>
<!-- MessageSearchComponent -->
<g id="node23" class="node">
<title>MessageSearchComponent</title>
<polygon fill="#ffffb3" stroke="black" points="2228.4,-122 2059.6,-122 2059.6,-86 2228.4,-86 2228.4,-122"/>
<text text-anchor="middle" x="2144" y="-99.8" font-family="Times,serif" font-size="14.00">MessageSearchComponent</text>
</g>
<!-- MessageSearchComponent&#45;&gt;MessageModule -->
<g id="edge19" class="edge">
<title>MessageSearchComponent&#45;&gt;MessageModule</title>
<path fill="none" stroke="black" d="M2137,-122.22C2137,-122.22 2137,-143.73 2137,-143.73"/>
<polygon fill="black" stroke="black" points="2133.5,-143.73 2137,-153.73 2140.5,-143.73 2133.5,-143.73"/>
</g>
<!-- MessageFormComponent  -->
<g id="node25" class="node">
<title>MessageFormComponent </title>
<polygon fill="#fb8072" stroke="black" points="2219.14,-258 2054.86,-258 2054.86,-222 2219.14,-222 2219.14,-258"/>
<text text-anchor="middle" x="2137" y="-235.8" font-family="Times,serif" font-size="14.00">MessageFormComponent </text>
</g>
<!-- MessageModule&#45;&gt;MessageFormComponent  -->
<g id="edge21" class="edge">
<title>MessageModule&#45;&gt;MessageFormComponent </title>
<path fill="none" stroke="black" stroke-dasharray="5,2" d="M2137,-190.22C2137,-190.22 2137,-211.73 2137,-211.73"/>
<polygon fill="black" stroke="black" points="2133.5,-211.73 2137,-221.73 2140.5,-211.73 2133.5,-211.73"/>
</g>
<!-- MessageListComponent  -->
<g id="node26" class="node">
<title>MessageListComponent </title>
<polygon fill="#fb8072" stroke="black" points="2036.59,-258 1881.41,-258 1881.41,-222 2036.59,-222 2036.59,-258"/>
<text text-anchor="middle" x="1959" y="-235.8" font-family="Times,serif" font-size="14.00">MessageListComponent </text>
</g>
<!-- MessageModule&#45;&gt;MessageListComponent  -->
<g id="edge22" class="edge">
<title>MessageModule&#45;&gt;MessageListComponent </title>
<path fill="none" stroke="black" stroke-dasharray="5,2" d="M2082.89,-181C2022.47,-181 1933.07,-181 1933.07,-181 1933.07,-181 1933.07,-211.98 1933.07,-211.98"/>
<polygon fill="black" stroke="black" points="1929.57,-211.98 1933.07,-221.98 1936.57,-211.98 1929.57,-211.98"/>
</g>
<!-- MessageSearchComponent  -->
<g id="node27" class="node">
<title>MessageSearchComponent </title>
<polygon fill="#fb8072" stroke="black" points="2408.9,-258 2237.1,-258 2237.1,-222 2408.9,-222 2408.9,-258"/>
<text text-anchor="middle" x="2323" y="-235.8" font-family="Times,serif" font-size="14.00">MessageSearchComponent </text>
</g>
<!-- MessageModule&#45;&gt;MessageSearchComponent  -->
<g id="edge23" class="edge">
<title>MessageModule&#45;&gt;MessageSearchComponent </title>
<path fill="none" stroke="black" stroke-dasharray="5,2" d="M2191.09,-178C2216.59,-178 2241.5,-178 2241.5,-178 2241.5,-178 2241.5,-211.73 2241.5,-211.73"/>
<polygon fill="black" stroke="black" points="2238,-211.73 2241.5,-221.73 2245,-211.73 2238,-211.73"/>
</g>
<!-- NotificationComponent -->
<g id="node28" class="node">
<title>NotificationComponent</title>
<polygon fill="#ffffb3" stroke="black" points="2598.48,-122 2449.52,-122 2449.52,-86 2598.48,-86 2598.48,-122"/>
<text text-anchor="middle" x="2524" y="-99.8" font-family="Times,serif" font-size="14.00">NotificationComponent</text>
</g>
<!-- NotificationComponent&#45;&gt;NotificationModule -->
<g id="edge24" class="edge">
<title>NotificationComponent&#45;&gt;NotificationModule</title>
<path fill="none" stroke="black" d="M2545.2,-122.22C2545.2,-122.22 2545.2,-143.73 2545.2,-143.73"/>
<polygon fill="black" stroke="black" points="2541.7,-143.73 2545.2,-153.73 2548.7,-143.73 2541.7,-143.73"/>
</g>
<!-- NotificationComponent  -->
<g id="node30" class="node">
<title>NotificationComponent </title>
<polygon fill="#fb8072" stroke="black" points="2601.48,-258 2448.52,-258 2448.52,-222 2601.48,-222 2601.48,-258"/>
<text text-anchor="middle" x="2525" y="-235.8" font-family="Times,serif" font-size="14.00">NotificationComponent </text>
</g>
<!-- NotificationModule&#45;&gt;NotificationComponent  -->
<g id="edge26" class="edge">
<title>NotificationModule&#45;&gt;NotificationComponent </title>
<path fill="none" stroke="black" stroke-dasharray="5,2" d="M2524,-190.22C2524,-190.22 2524,-211.73 2524,-211.73"/>
<polygon fill="black" stroke="black" points="2520.5,-211.73 2524,-221.73 2527.5,-211.73 2520.5,-211.73"/>
</g>
<!-- UserActionsComponent -->
<g id="node33" class="node">
<title>UserActionsComponent</title>
<polygon fill="#ffffb3" stroke="black" points="3350.81,-122 3199.19,-122 3199.19,-86 3350.81,-86 3350.81,-122"/>
<text text-anchor="middle" x="3275" y="-99.8" font-family="Times,serif" font-size="14.00">UserActionsComponent</text>
</g>
<!-- UserActionsComponent&#45;&gt;UserModule -->
<g id="edge29" class="edge">
<title>UserActionsComponent&#45;&gt;UserModule</title>
<path fill="none" stroke="black" d="M3203.47,-122.27C3203.47,-140.56 3203.47,-166 3203.47,-166 3203.47,-166 2975.06,-166 2975.06,-166"/>
<polygon fill="black" stroke="black" points="2975.06,-162.5 2965.06,-166 2975.06,-169.5 2975.06,-162.5"/>
</g>
<!-- UserLoginFormComponent -->
<g id="node34" class="node">
<title>UserLoginFormComponent</title>
<polygon fill="#ffffb3" stroke="black" points="3181.54,-122 3010.46,-122 3010.46,-86 3181.54,-86 3181.54,-122"/>
<text text-anchor="middle" x="3096" y="-99.8" font-family="Times,serif" font-size="14.00">UserLoginFormComponent</text>
</g>
<!-- UserLoginFormComponent&#45;&gt;UserModule -->
<g id="edge30" class="edge">
<title>UserLoginFormComponent&#45;&gt;UserModule</title>
<path fill="none" stroke="black" d="M3126.01,-122.03C3126.01,-138.4 3126.01,-160 3126.01,-160 3126.01,-160 2975.26,-160 2975.26,-160"/>
<polygon fill="black" stroke="black" points="2975.26,-156.5 2965.26,-160 2975.26,-163.5 2975.26,-156.5"/>
</g>
<!-- UserProfileComponent -->
<g id="node35" class="node">
<title>UserProfileComponent</title>
<polygon fill="#ffffb3" stroke="black" points="2991.86,-122 2846.14,-122 2846.14,-86 2991.86,-86 2991.86,-122"/>
<text text-anchor="middle" x="2919" y="-99.8" font-family="Times,serif" font-size="14.00">UserProfileComponent</text>
</g>
<!-- UserProfileComponent&#45;&gt;UserModule -->
<g id="edge31" class="edge">
<title>UserProfileComponent&#45;&gt;UserModule</title>
<path fill="none" stroke="black" d="M2936.33,-122.22C2936.33,-122.22 2936.33,-143.73 2936.33,-143.73"/>
<polygon fill="black" stroke="black" points="2932.83,-143.73 2936.33,-153.73 2939.83,-143.73 2932.83,-143.73"/>
</g>
<!-- UserRegisterFormComponent -->
<g id="node36" class="node">
<title>UserRegisterFormComponent</title>
<polygon fill="#ffffb3" stroke="black" points="2828.24,-122 2643.76,-122 2643.76,-86 2828.24,-86 2828.24,-122"/>
<text text-anchor="middle" x="2736" y="-99.8" font-family="Times,serif" font-size="14.00">UserRegisterFormComponent</text>
</g>
<!-- UserRegisterFormComponent&#45;&gt;UserModule -->
<g id="edge32" class="edge">
<title>UserRegisterFormComponent&#45;&gt;UserModule</title>
<path fill="none" stroke="black" d="M2766.79,-122.27C2766.79,-140.56 2766.79,-166 2766.79,-166 2766.79,-166 2868.77,-166 2868.77,-166"/>
<polygon fill="black" stroke="black" points="2868.77,-169.5 2878.77,-166 2868.77,-162.5 2868.77,-169.5"/>
</g>
<!-- UserActionsComponent  -->
<g id="node38" class="node">
<title>UserActionsComponent </title>
<polygon fill="#fb8072" stroke="black" points="3362.31,-258 3207.69,-258 3207.69,-222 3362.31,-222 3362.31,-258"/>
<text text-anchor="middle" x="3285" y="-235.8" font-family="Times,serif" font-size="14.00">UserActionsComponent </text>
</g>
<!-- UserModule&#45;&gt;UserActionsComponent  -->
<g id="edge34" class="edge">
<title>UserModule&#45;&gt;UserActionsComponent </title>
<path fill="none" stroke="black" stroke-dasharray="5,2" d="M2965.08,-172C3060.06,-172 3279.12,-172 3279.12,-172 3279.12,-172 3279.12,-211.78 3279.12,-211.78"/>
<polygon fill="black" stroke="black" points="3275.63,-211.78 3279.12,-221.78 3282.63,-211.78 3275.63,-211.78"/>
</g>
<!-- UserLoginFormComponent  -->
<g id="node39" class="node">
<title>UserLoginFormComponent </title>
<polygon fill="#fb8072" stroke="black" points="3189.54,-258 3014.46,-258 3014.46,-222 3189.54,-222 3189.54,-258"/>
<text text-anchor="middle" x="3102" y="-235.8" font-family="Times,serif" font-size="14.00">UserLoginFormComponent </text>
</g>
<!-- UserModule&#45;&gt;UserLoginFormComponent  -->
<g id="edge35" class="edge">
<title>UserModule&#45;&gt;UserLoginFormComponent </title>
<path fill="none" stroke="black" stroke-dasharray="5,2" d="M2965.28,-178C3009.03,-178 3070.24,-178 3070.24,-178 3070.24,-178 3070.24,-211.73 3070.24,-211.73"/>
<polygon fill="black" stroke="black" points="3066.74,-211.73 3070.24,-221.73 3073.74,-211.73 3066.74,-211.73"/>
</g>
<!-- UserProfileComponent  -->
<g id="node40" class="node">
<title>UserProfileComponent </title>
<polygon fill="#fb8072" stroke="black" points="2996.86,-258 2847.14,-258 2847.14,-222 2996.86,-222 2996.86,-258"/>
<text text-anchor="middle" x="2922" y="-235.8" font-family="Times,serif" font-size="14.00">UserProfileComponent </text>
</g>
<!-- UserModule&#45;&gt;UserProfileComponent  -->
<g id="edge36" class="edge">
<title>UserModule&#45;&gt;UserProfileComponent </title>
<path fill="none" stroke="black" stroke-dasharray="5,2" d="M2922,-190.22C2922,-190.22 2922,-211.73 2922,-211.73"/>
<polygon fill="black" stroke="black" points="2918.5,-211.73 2922,-221.73 2925.5,-211.73 2918.5,-211.73"/>
</g>
<!-- UserRegisterFormComponent  -->
<g id="node41" class="node">
<title>UserRegisterFormComponent </title>
<polygon fill="#fb8072" stroke="black" points="2829.24,-258 2640.76,-258 2640.76,-222 2829.24,-222 2829.24,-258"/>
<text text-anchor="middle" x="2735" y="-235.8" font-family="Times,serif" font-size="14.00">UserRegisterFormComponent </text>
</g>
<!-- UserModule&#45;&gt;UserRegisterFormComponent  -->
<g id="edge37" class="edge">
<title>UserModule&#45;&gt;UserRegisterFormComponent </title>
<path fill="none" stroke="black" stroke-dasharray="5,2" d="M2878.91,-178C2815.69,-178 2705.21,-178 2705.21,-178 2705.21,-178 2705.21,-211.73 2705.21,-211.73"/>
<polygon fill="black" stroke="black" points="2701.71,-211.73 2705.21,-221.73 2708.71,-211.73 2701.71,-211.73"/>
</g>
<!-- ViewHomeComponent -->
<g id="node42" class="node">
<title>ViewHomeComponent</title>
<polygon fill="#ffffb3" stroke="black" points="3705.86,-122 3560.14,-122 3560.14,-86 3705.86,-86 3705.86,-122"/>
<text text-anchor="middle" x="3633" y="-99.8" font-family="Times,serif" font-size="14.00">ViewHomeComponent</text>
</g>
<!-- ViewHomeComponent&#45;&gt;ViewModule -->
<g id="edge38" class="edge">
<title>ViewHomeComponent&#45;&gt;ViewModule</title>
<path fill="none" stroke="black" d="M3647.98,-122.22C3647.98,-122.22 3647.98,-143.73 3647.98,-143.73"/>
<polygon fill="black" stroke="black" points="3644.48,-143.73 3647.98,-153.73 3651.48,-143.73 3644.48,-143.73"/>
</g>
<!-- ViewMessageComponent -->
<g id="node43" class="node">
<title>ViewMessageComponent</title>
<polygon fill="#ffffb3" stroke="black" points="4052.13,-122 3891.87,-122 3891.87,-86 4052.13,-86 4052.13,-122"/>
<text text-anchor="middle" x="3972" y="-99.8" font-family="Times,serif" font-size="14.00">ViewMessageComponent</text>
</g>
<!-- ViewMessageComponent&#45;&gt;ViewModule -->
<g id="edge39" class="edge">
<title>ViewMessageComponent&#45;&gt;ViewModule</title>
<path fill="none" stroke="black" d="M3972,-122.29C3972,-144.21 3972,-178 3972,-178 3972,-178 3688.02,-178 3688.02,-178"/>
<polygon fill="black" stroke="black" points="3688.02,-174.5 3678.02,-178 3688.02,-181.5 3688.02,-174.5"/>
</g>
<!-- ViewProfileComponent -->
<g id="node44" class="node">
<title>ViewProfileComponent</title>
<polygon fill="#ffffb3" stroke="black" points="3873.75,-122 3724.25,-122 3724.25,-86 3873.75,-86 3873.75,-122"/>
<text text-anchor="middle" x="3799" y="-99.8" font-family="Times,serif" font-size="14.00">ViewProfileComponent</text>
</g>
<!-- ViewProfileComponent&#45;&gt;ViewModule -->
<g id="edge40" class="edge">
<title>ViewProfileComponent&#45;&gt;ViewModule</title>
<path fill="none" stroke="black" d="M3799,-122.27C3799,-140.56 3799,-166 3799,-166 3799,-166 3687.92,-166 3687.92,-166"/>
<polygon fill="black" stroke="black" points="3687.92,-162.5 3677.92,-166 3687.92,-169.5 3687.92,-162.5"/>
</g>
<!-- ViewRoutingModule -->
<g id="node46" class="node">
<title>ViewRoutingModule</title>
<polygon fill="#8dd3c7" stroke="black" points="3536.49,-122 3533.49,-126 3512.49,-126 3509.49,-122 3401.51,-122 3401.51,-86 3536.49,-86 3536.49,-122"/>
<text text-anchor="middle" x="3469" y="-99.8" font-family="Times,serif" font-size="14.00">ViewRoutingModule</text>
</g>
<!-- ViewRoutingModule&#45;&gt;ViewModule -->
<g id="edge42" class="edge">
<title>ViewRoutingModule&#45;&gt;ViewModule</title>
<path fill="none" stroke="black" d="M3469,-122.15C3469,-145.76 3469,-184 3469,-184 3469,-184 3577.75,-184 3577.75,-184"/>
<polygon fill="black" stroke="black" points="3577.75,-187.5 3587.75,-184 3577.75,-180.5 3577.75,-187.5"/>
</g>
</g>
</svg>
